<svg xmlns="http://www.w3.org/2000/svg" xmlns:xlink="http://www.w3.org/1999/xlink" viewBox="0 0 408.68 73.26"><defs><style>.a{fill:#2bb673}.b,.c,.d,.e,.f,.g{stroke:#fff;stroke-miterlimit:10;stroke-width:1.94px}.b{fill:url(#a)}.c{fill:url(#b)}.d{fill:url(#c)}.e{fill:url(#d)}.f{fill:url(#e)}.g{fill:url(#f)}.h{fill:#f9ed3b}.i{fill:#fff}</style><linearGradient id="a" x1="81.57" x2="151.6" y1="226.79" y2="152.81" gradientTransform="matrix(1, 0, 0, -1, -1.61, 245.95)" gradientUnits="userSpaceOnUse"><stop offset="0" stop-color="#1c4622"/><stop offset=".65" stop-color="#2bb673"/></linearGradient><linearGradient id="b" x1="83.75" x2="153.77" y1="227.61" y2="153.62" xlink:href="#a"/><linearGradient id="c" x1="72.83" x2="144.67" y1="218.11" y2="142.22" xlink:href="#a"/><linearGradient id="d" x1="-1814.61" x2="-1744.59" y1="226.22" y2="152.24" gradientTransform="translate(-1739.08 245.95) rotate(180)" xlink:href="#a"/><linearGradient id="e" x1="-1812.86" x2="-1742.84" y1="227.46" y2="153.47" gradientTransform="translate(-1739.08 245.95) rotate(180)" xlink:href="#a"/><linearGradient id="f" x1="-1823.57" x2="-1751.73" y1="217.96" y2="142.07" gradientTransform="translate(-1739.08 245.95) rotate(180)" xlink:href="#a"/></defs><path d="M167.77,239.77V204.33h6.43v14.83h7.22V204.33h6.48v35.44h-6.48v-16H174.2v16Z" class="a" transform="translate(-1.61 -170.05)"/><path d="M193.32,239.77V204.33h14.87v4.55h-8.4v10.19h6.61v4.51h-6.61V235.3h8.49v4.47Z" class="a" transform="translate(-1.61 -170.05)"/><path d="M212,239.77V204.33h8.49a18.86,18.86,0,0,1,6.06.85,7,7,0,0,1,3.76,2.91,10.51,10.51,0,0,1,1.29,5.6,17.78,17.78,0,0,1-.39,3.85,7.28,7.28,0,0,1-1.33,2.91,6.15,6.15,0,0,1-2.61,1.86l4.95,17.46h-6.48l-4.29-16.23h-3v16.23Zm6.48-20.3h2a6.73,6.73,0,0,0,3-.55,3.23,3.23,0,0,0,1.6-1.75,8.49,8.49,0,0,0,.48-3.08,6.78,6.78,0,0,0-1-4c-.65-.89-1.9-1.33-3.74-1.33h-2.36Z" class="a" transform="translate(-1.61 -170.05)"/><path d="M236.67,239.77V204.33h6.39v35.44Z" class="a" transform="translate(-1.61 -170.05)"/><path d="M252.07,239.77V209.1h-5.64v-4.77h17.68v4.77h-5.56v30.67Z" class="a" transform="translate(-1.61 -170.05)"/><path d="M264.67,239.77l7.09-35.44h6.91l7.09,35.44h-6l-1.4-8.18H272.2l-1.45,8.18Zm8.19-12.3h4.81l-2.41-14.87Z" class="a" transform="translate(-1.61 -170.05)"/><path d="M297.79,240.25a9.32,9.32,0,0,1-5.55-1.49,8.1,8.1,0,0,1-3-4.22,21,21,0,0,1-.89-6.45v-11.9a22.1,22.1,0,0,1,.87-6.57,7.64,7.64,0,0,1,3.09-4.22,11,11,0,0,1,6.1-1.46,11.54,11.54,0,0,1,5.77,1.22,7,7,0,0,1,3.09,3.52,14.76,14.76,0,0,1,.94,5.58v1.84H302v-2a16.06,16.06,0,0,0-.24-2.94,3.28,3.28,0,0,0-1-1.86,3.54,3.54,0,0,0-2.34-.63,3.26,3.26,0,0,0-2.48.83,4,4,0,0,0-1,2.19,20.07,20.07,0,0,0-.2,3v14.8a14.88,14.88,0,0,0,.31,3.19,3.68,3.68,0,0,0,1.14,2.08,3.46,3.46,0,0,0,2.36.72,3.35,3.35,0,0,0,2.41-.79,4.29,4.29,0,0,0,1.16-2.19,14.78,14.78,0,0,0,.32-3.32v-3.33h-3.8v-4.06h9.62v18h-4.15l-.48-3.5a6.78,6.78,0,0,1-2.13,2.86A6,6,0,0,1,297.79,240.25Z" class="a" transform="translate(-1.61 -170.05)"/><path d="M313.37,239.77V204.33h14.87v4.55h-8.4v10.19h6.61v4.51h-6.61V235.3h8.49v4.47Z" class="a" transform="translate(-1.61 -170.05)"/><path d="M352.26,240.25a10.55,10.55,0,0,1-6.1-1.53,8,8,0,0,1-3.09-4.18,19.66,19.66,0,0,1-.87-6.1V215.79a20.37,20.37,0,0,1,.87-6.3,7.49,7.49,0,0,1,3.09-4.11,13.78,13.78,0,0,1,11.85-.2,6.82,6.82,0,0,1,3,3.57,14.93,14.93,0,0,1,.88,5.38v3h-6.21V214a20.43,20.43,0,0,0-.16-2.71,3.36,3.36,0,0,0-.83-1.95,3.11,3.11,0,0,0-2.34-.72,3.31,3.31,0,0,0-2.43.77,3.74,3.74,0,0,0-1,2,16.7,16.7,0,0,0-.22,2.91v15.4A13.06,13.06,0,0,0,349,233a3.2,3.2,0,0,0,1.11,1.88,3.42,3.42,0,0,0,2.21.64,3,3,0,0,0,2.3-.77,3.7,3.7,0,0,0,.85-2,19.26,19.26,0,0,0,.18-2.84v-3.2h6.21v2.85a17.26,17.26,0,0,1-.83,5.57,7.31,7.31,0,0,1-2.91,3.81A10.5,10.5,0,0,1,352.26,240.25Z" class="a" transform="translate(-1.61 -170.05)"/><path d="M366.35,239.77V204.33h8.7a19.11,19.11,0,0,1,4.27.44,8.66,8.66,0,0,1,3.28,1.46,6.66,6.66,0,0,1,2.12,2.77,11.3,11.3,0,0,1,.74,4.42,10.2,10.2,0,0,1-.59,3.67,5.59,5.59,0,0,1-1.72,2.43,6.4,6.4,0,0,1-2.85,1.21,7.38,7.38,0,0,1,3.48,1.46,6.84,6.84,0,0,1,2.06,2.91,12.26,12.26,0,0,1,.67,4.33,14.82,14.82,0,0,1-.63,4.49,8.2,8.2,0,0,1-1.88,3.24,7.9,7.9,0,0,1-3.11,2,12.84,12.84,0,0,1-4.35.66Zm6.47-21H375a6.33,6.33,0,0,0,3-.57,3.07,3.07,0,0,0,1.47-1.75,9,9,0,0,0,.41-3,5.54,5.54,0,0,0-.63-2.91,3.21,3.21,0,0,0-1.9-1.4,11.82,11.82,0,0,0-3.24-.37h-1.27Zm0,16.41h2.45c2,0,3.28-.48,4-1.43a7.36,7.36,0,0,0,1.05-4.39,10,10,0,0,0-.5-3.48,3.76,3.76,0,0,0-1.66-2,6.25,6.25,0,0,0-3.09-.66h-2.23Z" class="a" transform="translate(-1.61 -170.05)"/><path d="M390.71,239.77V204.33h8.36a15.66,15.66,0,0,1,6.76,1.18,6.84,6.84,0,0,1,3.45,3.63,16,16,0,0,1,1,6.21v13a17.05,17.05,0,0,1-1,6.41,7.11,7.11,0,0,1-3.41,3.81,14.28,14.28,0,0,1-6.54,1.25Zm6.48-4.51h2a5,5,0,0,0,3.19-.79,3.4,3.4,0,0,0,1.18-2.29,25.44,25.44,0,0,0,.22-3.7V214.92a15.48,15.48,0,0,0-.31-3.46,2.92,2.92,0,0,0-1.26-1.92,6,6,0,0,0-3.11-.62h-1.88Z" class="a" transform="translate(-1.61 -170.05)"/><polygon points="122.68 43.42 80.36 70.21 133.47 69.89 153.54 46.27 122.68 43.42" class="b"/><polygon points="132.02 16.44 101.5 26.11 79.8 70.49 122.89 43.61 132.02 16.44" class="c"/><polyline points="78.73 71.84 100.43 26.18 79.58 .61" class="d"/><polygon points="32.81 44 75.13 70.78 22.02 70.46 1.95 46.84 32.81 44" class="e"/><polygon points="23.89 16.59 54.41 26.25 76.11 70.64 33.03 43.76 23.89 16.59" class="f"/><polyline points="76.97 71.99 55.27 26.33 76.13 .75" class="g"/><path d="M80.21,224.91a27.37,27.37,0,0,1-3.59,5.78c-2.76,3.65-3.85,6.23-2.26,9.48s6.24,2.27,6.24,2.27a5.24,5.24,0,0,0,4.17-5c.21-3.7-1.59-4.93-2.61-6.44a13.06,13.06,0,0,1-1.82-4A20.75,20.75,0,0,1,80.21,224.91Z" class="h" transform="translate(-1.61 -170.05)"/><path d="M76.74,232s-2.45,3.31-2.14,5.44l.11,1.13,1,.34a13.89,13.89,0,0,1,.23-4.12A21.53,21.53,0,0,1,76.74,232Z" class="i" transform="translate(-1.61 -170.05)"/></svg>