<svg xmlns="http://www.w3.org/2000/svg" viewBox="0 0 175.6 175.37"><defs><style>.a{fill:#231f20}.b{isolation:isolate}.c,.e,.f,.g,.h{fill:#fff}.d{fill:#00a651}.e,.f,.g,.h{stroke:#000}.e,.f,.g,.h,.i{stroke-miterlimit:10}.e{stroke-width:1.11px}.f{stroke-width:.99px}.g{stroke-width:.92px}.h{stroke-width:.87px}.i{fill:none;stroke:#231f20;stroke-width:1.37px}</style></defs><rect width="152.5" height="41.28" x="12.6" y="84.89" class="a"/><g class="b"><g class="b"><path d="M33.59,116.29a.13.13,0,0,1-.15-.15l.06-19.65c0-.08,0-.11.12-.11h5.49A5.48,5.48,0,0,1,43.27,98a6,6,0,0,1,1.53,4.35,7.33,7.33,0,0,1-.8,3.51,5.82,5.82,0,0,1-2.09,2.29,5.15,5.15,0,0,1-2.8.8H36.93v7.21c0,.1,0,.15-.14.15Zm3.34-10.82h2.18a2,2,0,0,0,1.59-.87,3.67,3.67,0,0,0,.67-2.27,2.73,2.73,0,0,0-.6-1.83,2.05,2.05,0,0,0-1.66-.72l-2.18,0Z" class="c"/><path d="M46.63,116.29c-.07,0-.11-.05-.11-.15l0-19.65c0-.08,0-.11.11-.11h9.19c.07,0,.11,0,.11.14v3.2c0,.08,0,.12-.11.12H50v4.46h5.87a.1.1,0,0,1,.11.11l0,3.24c0,.07,0,.11-.12.11H50v5h5.89c.08,0,.12,0,.12.14v3.26a.11.11,0,0,1-.12.12Z" class="c"/><path d="M61.4,116.29q-.12,0-.12-.15V99.84H57.56c-.09,0-.14,0-.14-.15l0-3.2a.1.1,0,0,1,.11-.11H68.43c.1,0,.15,0,.15.11v3.2q0,.15-.12.15H64.71l0,16.3c0,.1,0,.15-.11.15Z" class="c"/><path d="M70.09,116.29c-.07,0-.11-.05-.11-.15L70,96.49c0-.08,0-.11.11-.11h3.49a.23.23,0,0,1,.2.11l2.6,3.78,2.61-3.78a.22.22,0,0,1,.2-.11h3.52a.1.1,0,0,1,.11.11l.06,19.65q0,.15-.12.15H79.59c-.08,0-.11-.05-.11-.15l0-14.59-3,4.35-3-4.35,0,14.59c0,.1,0,.15-.11.15Z" class="c"/><path d="M85.46,116.29q-.12,0-.12-.15l0-19.65a.1.1,0,0,1,.11-.11h9.19c.07,0,.11,0,.11.14v3.2c0,.08,0,.12-.11.12H88.8v4.46h5.87a.1.1,0,0,1,.11.11l0,3.24a.1.1,0,0,1-.11.11H88.8v5h5.9c.07,0,.11,0,.11.14v3.26c0,.08,0,.12-.11.12Z" class="c"/></g><g class="b"><path d="M97.49,116.29a.13.13,0,0,1-.15-.15l.06-19.65c0-.08,0-.11.12-.11l5.35,0a5.35,5.35,0,0,1,2.87.74,6,6,0,0,1,2.08,2.07,5.59,5.59,0,0,1,.77,2.88v8.21a5.88,5.88,0,0,1-.8,3,6,6,0,0,1-2.15,2.16,6.08,6.08,0,0,1-3,.83Zm3.34-3.52h1.78a2.42,2.42,0,0,0,1.79-.75,2.45,2.45,0,0,0,.73-1.77V102a2.18,2.18,0,0,0-.68-1.59,2.07,2.07,0,0,0-1.58-.64l-2,0Z" class="c"/></g><g class="b"><path d="M115.41,116.57a5.35,5.35,0,0,1-2.85-.78,5.84,5.84,0,0,1-2-2.11,5.92,5.92,0,0,1-.74-2.94l0-8.93a5.7,5.7,0,0,1,.73-2.87,5.57,5.57,0,0,1,2-2.09,5.27,5.27,0,0,1,2.85-.79,5.34,5.34,0,0,1,2.83.77,5.8,5.8,0,0,1,2.75,5v1.32c0,.07,0,.11-.12.11h-3.2c-.08,0-.12,0-.12-.11v-1.32a2.36,2.36,0,0,0-.61-1.63,2,2,0,0,0-1.53-.69,1.91,1.91,0,0,0-1.58.7,2.59,2.59,0,0,0-.54,1.62v8.93a2.41,2.41,0,0,0,.62,1.71,2,2,0,0,0,1.5.66,1.91,1.91,0,0,0,1.53-.73,2.46,2.46,0,0,0,.61-1.64v-1.32c0-.08,0-.11.12-.11h3.23c.08,0,.12,0,.12.11v1.32a5.83,5.83,0,0,1-.76,2.94,6,6,0,0,1-2,2.11A5.26,5.26,0,0,1,115.41,116.57Z" class="d"/><path d="M123.22,116.29q-.12,0-.12-.15l.06-19.65c0-.08,0-.11.12-.11h5.49a5.52,5.52,0,0,1,2.92.78,5.94,5.94,0,0,1,2,2.08,5.53,5.53,0,0,1,.74,2.8,4.76,4.76,0,0,1-.56,2.29,5.72,5.72,0,0,1-1.33,1.72,5.9,5.9,0,0,1,1.75,4.2,5.91,5.91,0,0,1-.8,3,6.13,6.13,0,0,1-2.16,2.19,5.71,5.71,0,0,1-3,.82Zm3.35-3.49h1.77a2.4,2.4,0,0,0,1.77-.76,2.47,2.47,0,0,0,.75-1.79,2.56,2.56,0,0,0-2.52-2.52h-1.75Zm0-8.53h2.18a2,2,0,0,0,1.61-.7A2.29,2.29,0,0,0,131,102a2.2,2.2,0,0,0-.66-1.59,2.11,2.11,0,0,0-1.57-.67h-2.18Z" class="d"/><path d="M136.52,116.29c-.09,0-.14-.05-.14-.15l.06-19.65c0-.08,0-.11.11-.11l5.35,0a5.38,5.38,0,0,1,2.88.74,6,6,0,0,1,2.07,2.07,5.5,5.5,0,0,1,.77,2.88v8.21a5.78,5.78,0,0,1-.8,3,6,6,0,0,1-2.14,2.16,6.09,6.09,0,0,1-3,.83Zm3.35-3.52h1.77a2.53,2.53,0,0,0,2.52-2.52V102a2.17,2.17,0,0,0-.67-1.59,2.1,2.1,0,0,0-1.59-.64l-2,0Z" class="d"/></g></g><path d="M39.5,79.79c1.9-2.4,8.2-5.6,10.9-2.7s5.8,8.9,2.9,11.6-3.5,4.3-4.7,4.1-5,0-6.1-.6S34.5,86.19,39.5,79.79Z" class="e"/><path d="M43.5,87.69a26,26,0,0,0,1.5,2.4l.9,1.1a2.07,2.07,0,0,0,.9.7l-.5,1a3.09,3.09,0,0,1-1.1-1.2,8.14,8.14,0,0,1-.7-1.3C44.1,89.49,43.8,88.59,43.5,87.69Z"/><path d="M49.2,85.49a22.39,22.39,0,0,1,1.6,2.6,8.52,8.52,0,0,1,.5,1.5,2.57,2.57,0,0,1-.2,1.9l-1-.7a1.61,1.61,0,0,0,.3-1.1,7.38,7.38,0,0,0-.2-1.4A10.63,10.63,0,0,0,49.2,85.49Z"/><path d="M72.7,80.29c-1.7-2.1-7.4-5-9.9-2.4s-5.3,7.8-2.6,10.1,3.2,3.8,4.3,3.6,4.5,0,5.5-.5S77.3,85.79,72.7,80.29Z" class="f"/><path d="M69.1,87.19l-.9,2.3a4.11,4.11,0,0,1-.7,1.1,2.65,2.65,0,0,1-1,1.1l-.4-.9a2.5,2.5,0,0,0,.9-.6l.7-.9C68.2,88.59,68.7,87.89,69.1,87.19Z"/><path d="M63.9,85.19a12.23,12.23,0,0,0-.9,2.5,4.86,4.86,0,0,0-.2,1.2,1.68,1.68,0,0,0,.2.9l-.8.6a1.78,1.78,0,0,1-.2-1.6,4.87,4.87,0,0,1,.5-1.3A18.56,18.56,0,0,1,63.9,85.19Z"/><path d="M44.5,50.39s-6.8,5-6.9,15.8-.5,16.9-7.3,17.3c0,0-.6-10.3-2.6-11.5s-4.8-10.1,2.3-14.5A88.89,88.89,0,0,1,44.5,50.39Z" class="a"/><path d="M67.6,49.69s6.8,4.9,6.9,15.7.4,17,7.3,17.4c0,0,.5-10.4,2.5-11.5s4.9-10.1-2.2-14.5A93.13,93.13,0,0,0,67.6,49.69Z" class="a"/><ellipse cx="47.69" cy="67.83" class="a" rx="3.7" ry="3.9" transform="translate(-21.99 112.76) rotate(-87.7)"/><circle cx="50.92" cy="67.2" r="1.5" class="c"/><ellipse cx="64.02" cy="67.76" class="a" rx="3.7" ry="3.9" transform="translate(-6.25 129.02) rotate(-87.71)"/><circle cx="67.17" cy="67.22" r="1.5" class="c"/><path d="M114.5,83.19c1.1-1.4,4.7-3.3,6.2-1.6s3.7,5.2,2,6.7-2.4,3-3.1,2.7-2.8-.4-3.4-.7S111.6,86.79,114.5,83.19Z" class="g"/><path d="M116.2,84.79a25.93,25.93,0,0,0,1.3,2.9,11.47,11.47,0,0,0,.8,1.4,4.82,4.82,0,0,0,.8,1l-.6.9a4.59,4.59,0,0,1-1-1.5,10.21,10.21,0,0,1-.5-1.6A17.65,17.65,0,0,1,116.2,84.79Z"/><path d="M118.8,83.89a18.85,18.85,0,0,1,2,2.7,8.53,8.53,0,0,1,.8,1.7,3.07,3.07,0,0,1,.2,1,1.89,1.89,0,0,1-.4,1.2l-1-1c.2,0,.3-.5.2-1a5.22,5.22,0,0,0-.4-1.6A13.23,13.23,0,0,0,118.8,83.89Z"/><path d="M134.3,83.29c-1-1.3-4.5-3.1-5.9-1.5s-3.5,5-1.9,6.5,2.3,2.8,2.9,2.5,2.7-.3,3.3-.7S137.1,86.79,134.3,83.29Z" class="h"/><path d="M132.7,84.89c-.2,1-.4,2-.7,3a10.2,10.2,0,0,1-.6,1.5,3,3,0,0,1-.9,1.5l-.6-1a2.47,2.47,0,0,0,.8-.9l.8-1.3Z"/><path d="M130.2,84c-.5,1-1,1.9-1.4,2.9a7.67,7.67,0,0,0-.3,1.5c-.1.5,0,.9.2,1l-.9.9a1.71,1.71,0,0,1-.4-1.1,3,3,0,0,1,.1-1,5,5,0,0,1,.8-1.5A13.13,13.13,0,0,1,130.2,84Z"/><path d="M108.6,72.89c-2.1-4.5-3.6-16.2-1.3-16.8s9.7,3.1,11.1,6.3c4.9-.9,11.4-.5,12.6.5s7.8-7.5,11.2-6.7-.8,16.4-.8,16.4" class="i"/><path d="M120.2,73.69a109,109,0,0,0-12.9.7,44.65,44.65,0,0,0-6.3,1,22.17,22.17,0,0,0-6.1,2.2,20.66,20.66,0,0,1,6-2.4c2.1-.5,4.2-.9,6.4-1.2a111.35,111.35,0,0,1,12.9-1c.2,0,.4.1.4.3a.4.4,0,0,1-.4.4Z"/><path d="M120.3,74.89a64.38,64.38,0,0,0-9.9.8,37.3,37.3,0,0,0-4.9,1.1,11.27,11.27,0,0,0-4.4,2.2,11.78,11.78,0,0,1,4.3-2.3,28.53,28.53,0,0,1,4.9-1.3,84,84,0,0,1,10-1.1.29.29,0,0,1,.3.3h0c0,.1-.1.3-.2.3Z"/><path d="M120.4,75.79c-3.7.6-7.3,1.3-10.9,2.2a53.24,53.24,0,0,0-5.2,1.8,14.12,14.12,0,0,0-4.7,2.9,13,13,0,0,1,4.7-3,28.41,28.41,0,0,1,5.2-1.9,93.26,93.26,0,0,1,10.8-2.6.29.29,0,0,1,.3.3h0C120.7,75.69,120.6,75.79,120.4,75.79Z"/><path d="M128.6,73.09a111.49,111.49,0,0,1,12.9,1.1c2.1.3,4.3.7,6.4,1.2a18.86,18.86,0,0,1,5.9,2.4,15.92,15.92,0,0,0-6-2.2,46.38,46.38,0,0,0-6.3-1.1c-4.3-.5-8.6-.7-12.9-.8h0c-.2,0-.4-.1-.4-.3s.2-.3.4-.3Z"/><path d="M128.4,74.39a82,82,0,0,1,10,1.1l4.9,1.3a10.38,10.38,0,0,1,4.4,2.4,11.47,11.47,0,0,0-4.4-2.3,43.34,43.34,0,0,0-4.9-1.1,65.67,65.67,0,0,0-10-.8h0a.5.5,0,0,1-.3-.3Q128.29,74.39,128.4,74.39Z"/><path d="M128.5,75.29a97.55,97.55,0,0,1,10.8,2.6,45.51,45.51,0,0,1,5.2,1.9,13.31,13.31,0,0,1,4.6,3.1,12.74,12.74,0,0,0-4.7-2.9,43.78,43.78,0,0,0-5.2-1.8,78,78,0,0,0-10.8-2.3h0a.3.3,0,0,1-.3-.3h0c.1-.2.2-.3.4-.3Z"/><path d="M120.8,73.19c1.5-.9,6-.7,6.8-.3s-1.8,4-3,4S120.3,73.49,120.8,73.19Z" class="a"/></svg>